<?xml version="1.0" encoding="utf-8"?>
<!DOCTYPE svg PUBLIC "-//W3C//DTD SVG 1.1//EN" "http://www.w3.org/Graphics/SVG/1.1/DTD/svg11.dtd">
<svg version="1.1" id="B" xmlns="http://www.w3.org/2000/svg" xmlns:xlink="http://www.w3.org/1999/xlink" x="0px" y="0px"
	 width="300px" height="200px" viewBox="0 0 300 200" enable-background="new 0 0 300 200" xml:space="preserve">
<g>
	<path fill="#FFD500" d="M210.3,58.1c-23.1,0-41.9,18.8-41.9,41.9c0,23.1,18.8,41.9,41.9,41.9c23.1,0,41.9-18.8,41.9-41.9
		C252.2,76.9,233.4,58.1,210.3,58.1z"/>
	<g>
		<path fill="#FFD500" d="M210,52.8c2.8,0,5-2.3,5-5.1V23.5c0-2.8-2.2-5.1-5-5.1c-2.8,0-5,2.3-5,5.1v24.2
			C205,50.5,207.2,52.8,210,52.8z"/>
		<path fill="#FFD500" d="M163.1,100c0-2.8-2.3-5-5.1-5h-24.2c-2.8,0-5.1,2.2-5.1,5c0,2.8,2.3,5,5.1,5H158
			C160.8,105,163.1,102.8,163.1,100z"/>
		<path fill="#FFD500" d="M210,147.2c-2.8,0-5,2.3-5,5.1v24.2c0,2.8,2.2,5.1,5,5.1c2.8,0,5-2.3,5-5.1v-24.2
			C215,149.5,212.8,147.2,210,147.2z"/>
		<path fill="#FFD500" d="M286.9,95h-24.2c-2.8,0-5.1,2.2-5.1,5c0,2.8,2.3,5,5.1,5h24.2c2.8,0,5.1-2.2,5.1-5
			C291.9,97.2,289.7,95,286.9,95z"/>
	</g>
	<g>
		<path fill="#FFD500" d="M186.7,59.1c2.4-1.4,3.3-4.5,1.9-6.9l-12.1-21c-1.4-2.4-4.5-3.3-6.9-1.9c-2.4,1.4-3.3,4.5-1.9,6.9l12.1,21
			C181.2,59.7,184.3,60.5,186.7,59.1z"/>
		<path fill="#FFD500" d="M169.4,123.6c-1.4-2.4-4.5-3.3-6.9-1.9l-21,12.1c-2.4,1.4-3.3,4.5-1.9,6.9c1.4,2.4,4.5,3.3,6.9,1.9
			l21-12.1C170,129.2,170.8,126,169.4,123.6z"/>
		<path fill="#FFD500" d="M233.9,140.9c-2.4,1.4-3.3,4.5-1.9,6.9l12.1,21c1.4,2.4,4.5,3.3,6.9,1.9c2.4-1.4,3.3-4.5,1.9-6.9l-12.1-21
			C239.5,140.3,236.3,139.5,233.9,140.9z"/>
		<path fill="#FFD500" d="M274.1,57.3l-21,12.1c-2.4,1.4-3.3,4.5-1.9,6.9c1.4,2.4,4.5,3.3,6.9,1.9l21-12.1c2.4-1.4,3.3-4.5,1.9-6.9
			C279.6,56.8,276.5,55.9,274.1,57.3z"/>
	</g>
	<g>
		<path fill="#FFD500" d="M169.4,76.4c1.4-2.4,0.6-5.5-1.9-6.9l-21-12.1c-2.4-1.4-5.5-0.6-6.9,1.9c-1.4,2.4-0.6,5.5,1.9,6.9l21,12.1
			C164.9,79.7,168,78.8,169.4,76.4z"/>
		<path fill="#FFD500" d="M186.7,140.9c-2.4-1.4-5.5-0.6-6.9,1.9l-12.1,21c-1.4,2.4-0.6,5.5,1.9,6.9c2.4,1.4,5.5,0.6,6.9-1.9
			l12.1-21C190,145.4,189.1,142.3,186.7,140.9z"/>
		<path fill="#FFD500" d="M251.2,123.6c-1.4,2.4-0.6,5.5,1.9,6.9l21,12.1c2.4,1.4,5.6,0.6,6.9-1.9c1.4-2.4,0.6-5.5-1.9-6.9l-21-12.1
			C255.7,120.4,252.6,121.2,251.2,123.6z"/>
		<path fill="#FFD500" d="M244.2,31.2l-12.1,21c-1.4,2.4-0.6,5.5,1.9,6.9c2.4,1.4,5.5,0.6,6.9-1.9l12.1-21c1.4-2.4,0.6-5.5-1.9-6.9
			C248.7,27.9,245.6,28.8,244.2,31.2z"/>
	</g>
</g>
<g>
	<path fill="#B2B3B8" d="M44.5,133C31,132.8,20,121.5,20,108c0-13.8,11.2-25,25-25c3.2,0,6.3,0.6,9.2,1.8l14.7,5.9l1.5-15.8
		C73,47.1,96.1,26.2,124,26.2c9,0,17.5,2.2,24.9,6.1l8.6-8.7c-9.8-5.9-21.3-9.3-33.5-9.3c-34.1,0-62.2,26.1-65.4,59.4
		c-4.3-1.7-8.9-2.6-13.7-2.6C24.6,71.1,8.5,87.7,8.5,108c0,20.1,16.5,36.4,36.5,36.8v0l83.5,0.1l-7.2-11.8L44.5,133z"/>
</g>
</svg>
